<svg version="1.1" xmlns="http://www.w3.org/2000/svg" width="400" height="200" style="border: dashed 2px #aaa"><path fill="#000000" d="M44.097,110.98l0,6.71l-12.322,0l0,11.59l10.919,0l1.403-5.002l5.49,0l0,12.322l-31.842,0l0-5.185l4.575-1.83l0-28.67l-4.575-1.83l0-5.185l14.03-0.305l17.08,0l0,11.773l-5.49,0l-1.525-4.453l-10.065,0l0,10.065l12.322,0z M67.18611,123.363l0.915,5.124s2.44,1.281,5.978,1.281c3.904,0,7.381-1.708,7.381-4.941c0-7.137-20.618-3.965-20.618-19.032c0-8.418,6.649-12.932,15.494-12.932c6.893,0,13.42,2.44,13.42,2.44l-0.305,11.102l-5.612,0l-1.525-5.185s-2.745-0.915-5.368-0.915c-4.331,0-6.466,1.891-6.466,4.331c0,7.076,20.557,4.27,20.557,18.605c0,9.15-7.076,14.152-16.47,14.152c-6.893,0-13.603-2.318-13.603-2.318l0-11.712l6.222,0z M108.33122,123.363l0.915,5.124s2.44,1.281,5.978,1.281c3.904,0,7.381-1.708,7.381-4.941c0-7.137-20.618-3.965-20.618-19.032c0-8.418,6.649-12.932,15.494-12.932c6.893,0,13.42,2.44,13.42,2.44l-0.305,11.102l-5.612,0l-1.525-5.185s-2.745-0.915-5.368-0.915c-4.331,0-6.466,1.891-6.466,4.331c0,7.076,20.557,4.27,20.557,18.605c0,9.15-7.076,14.152-16.47,14.152c-6.893,0-13.603-2.318-13.603-2.318l0-11.712l6.222,0z M141.60733,136.6l0-5.185l4.575-1.83l0-28.67l-4.575-1.83l0-5.185l14.64-0.305l16.47,28.182l0-20.862l-4.453-1.83l0-5.185l17.385-0.305l0,5.49l-4.575,1.83l0,35.685l-10.187,0l-16.348-27.633l0,20.618l4.758,1.83l0,5.185l-17.69,0z M205.26144,129.585l0-28.67l-5.795,0l-1.525,5.795l-5.612,0l0-13.115l35.38,0l0,13.115l-5.673,0l-1.525-5.795l-5.795,0l0,28.67l5.795,1.83l0,5.185l-21.045,0l0-5.185z M257.75255,129.28l1.342-6.71l5.795,0l0,14.03l-30.5,0l0-5.185l4.575-1.83l0-28.67l-4.575-1.83l0-5.185l18.605-0.305l0,5.49l-4.575,1.83l0,28.365l9.333,0z M297.40377,113.237l0-15.616l-3.416,0l-0.793,4.27l-3.355,0l0-8.296l21.35,0l0,8.296l-3.355,0l-1.037-4.27l-3.416,0l0,15.616l3.05,0.915l0,2.928l-12.078,0l0-2.928z M313.14177,117.08l0-2.928l3.05-0.915l0-15.372l-3.05-0.854l0-3.233l9.272-0.183l5.429,10.736l5.49-10.553l8.906-0.183l0,3.294l-2.989,0.976l0,15.372l2.989,0.915l0,2.928l-10.858,0l0-2.928l2.745-0.915l0-11.468l-4.819,8.845l-3.599,0.427l-4.819-8.906l0,11.102l2.745,0.915l0,2.928l-10.492,0z"/><path fill="#" d=""/></svg>